<?xml version="1.0" ?><!DOCTYPE svg  PUBLIC '-//W3C//DTD SVG 1.1//EN'  'http://www.w3.org/Graphics/SVG/1.1/DTD/svg11.dtd'><svg enable-background="new 0 0 800 800" height="800px" id="Layer_1" version="1.1" viewBox="0 0 800 800" width="800px" xml:space="preserve" xmlns="http://www.w3.org/2000/svg" xmlns:xlink="http://www.w3.org/1999/xlink"><path d="M450.987,41.663c-0.009,0-0.009,0-0.009,0c-17.136-2.419-34.29-3.646-50.979-3.646  c-159.931,0-298.968,102.626-345.992,255.356c0,0.019-0.01,0.019-0.01,0.019C43.394,327.849,38.017,363.72,38.017,400  c0,62.421,16.242,124.041,46.959,178.238C149.238,691.563,269.949,761.983,400,761.983l1.86-0.056c0.027,0,0.057,0,0.094,0  c67.871-0.354,133.985-19.665,191.205-55.853c0,0,0,0,0.02,0c72.541-45.881,126.58-115.967,152.182-197.402  c11.033-35.089,16.623-71.667,16.623-108.673C761.983,220.72,628.286,66.668,450.987,41.663z M653.181,191.119  c47.257,57.267,75.463,130.404,75.463,208.881c0,28.912-3.759,57.509-11.173,85.23c-1.972-0.223-3.935-0.279-5.907-0.465  c-2.921-0.279-5.823-0.521-8.744-0.707c-5.014-0.335-10.01-0.521-14.996-0.596c-1.786-0.037-3.6-0.223-5.387-0.223  c-1.19,0-2.362,0.074-3.544,0.093c-2.345,0.037-4.67,0.111-7.005,0.205c-4.102,0.13-8.177,0.353-12.232,0.65  c-2.289,0.168-4.577,0.354-6.865,0.577c-4.382,0.428-8.745,0.986-13.08,1.6c-1.842,0.261-3.684,0.484-5.507,0.782  c-12.438,2.009-24.681,4.818-36.708,8.409c-1.601,0.465-3.182,1.042-4.781,1.544c-4.326,1.377-8.624,2.81-12.875,4.391  c-2.104,0.764-4.178,1.601-6.252,2.419c-3.795,1.507-7.563,3.089-11.313,4.744c-1.209,0.54-2.455,0.986-3.664,1.545  c-0.112-0.261-0.252-0.521-0.363-0.801c-3.824-9.005-7.953-18.01-12.271-27.015c-0.948-2.009-1.916-4-2.902-5.99  c-4.409-8.968-9.023-17.954-13.935-26.903c-0.624-1.135-1.303-2.289-1.936-3.442c-4.623-8.316-9.471-16.596-14.494-24.875  c-1.004-1.656-1.972-3.312-2.994-4.949c-5.471-8.837-11.183-17.619-17.1-26.4c-0.52-0.763-0.985-1.545-1.506-2.308  C575.577,306.081,631.858,224.273,653.181,191.119z M424.978,719.267c0.363-1.322,0.697-2.661,1.088-3.982  c1.434-4.875,2.959-9.674,4.615-14.419c0.344-1.005,0.734-1.954,1.098-2.939c1.339-3.759,2.734-7.479,4.223-11.145  c0.651-1.601,1.35-3.182,2.028-4.782c1.284-3.014,2.595-6.027,3.963-8.986c0.79-1.692,1.601-3.367,2.419-5.023  c1.395-2.865,2.828-5.674,4.307-8.483c0.847-1.601,1.703-3.2,2.576-4.782c1.639-2.957,3.331-5.859,5.062-8.744  c0.8-1.32,1.563-2.66,2.362-3.963c5.154-8.279,10.707-16.242,16.633-23.852c0.922-1.191,1.889-2.326,2.828-3.498  c2.084-2.604,4.205-5.172,6.373-7.665c1.162-1.358,2.354-2.661,3.544-3.981c2.065-2.289,4.167-4.54,6.298-6.754  c1.256-1.303,2.521-2.586,3.795-3.87c2.242-2.214,4.531-4.391,6.838-6.53c1.219-1.116,2.419-2.27,3.666-3.367  c2.828-2.531,5.711-4.949,8.642-7.35c0.772-0.633,1.517-1.303,2.298-1.916c3.74-2.977,7.554-5.842,11.442-8.614  c1.051-0.744,2.14-1.433,3.19-2.158c2.279-1.563,4.586-3.089,6.931-4.596c0.037,0.112,0.074,0.224,0.111,0.335  c0.325,0.93,0.614,1.879,0.931,2.81c1.684,4.986,3.303,9.991,4.828,14.978c0.604,1.972,1.162,3.943,1.739,5.916  c1.173,4.019,2.308,8.057,3.377,12.074c0.567,2.104,1.106,4.225,1.646,6.346c1.015,4.037,1.972,8.074,2.874,12.093  c0.438,1.935,0.885,3.87,1.303,5.805c1.079,5.099,2.074,10.196,2.977,15.274c0.141,0.819,0.316,1.619,0.457,2.42  c1.014,5.859,1.896,11.721,2.669,17.563c0.233,1.749,0.409,3.479,0.624,5.229c0.502,4.131,0.957,8.242,1.339,12.372  c0.204,2.121,0.362,4.224,0.53,6.345c0.14,1.86,0.232,3.74,0.363,5.6c-43.955,25.992-93.287,41.285-144.229,44.802  C423.442,724.94,424.187,722.094,424.978,719.267z M471.565,360.036c-0.215-0.298-0.465-0.596-0.689-0.894  c-6.26-8.428-12.791-16.819-19.47-25.191c-1.47-1.842-2.939-3.665-4.429-5.488c-6.837-8.429-13.813-16.838-21.061-25.173  c-0.502-0.577-1.023-1.153-1.535-1.73c-6.93-7.944-14.074-15.833-21.367-23.685c-1.545-1.656-3.07-3.33-4.633-4.986  c-7.592-8.074-15.359-16.075-23.313-24.038c-0.54-0.521-1.023-1.079-1.563-1.6c0.54-0.521,1.023-1.098,1.563-1.619  c5.162-5.005,10.177-10.121,14.939-15.461c0.103-0.111,0.205-0.223,0.307-0.335c4.811-5.396,9.35-11.032,13.74-16.781  c0.764-1.005,1.563-2.01,2.316-3.033c4.158-5.581,8.121-11.33,11.879-17.21c0.717-1.116,1.405-2.232,2.104-3.367  c3.795-6.103,7.424-12.298,10.791-18.68c0.195-0.372,0.371-0.763,0.558-1.135c3.247-6.214,6.251-12.596,9.07-19.07  c0.465-1.061,0.958-2.103,1.405-3.182c2.753-6.512,5.273-13.154,7.6-19.889c0.456-1.34,0.912-2.698,1.358-4.057  c2.261-6.847,4.345-13.786,6.149-20.856c0.204-0.818,0.371-1.637,0.576-2.475c1.693-6.81,3.154-13.712,4.41-20.688  c0.111-0.67,0.307-1.321,0.428-2.01c64.652,12.521,122.217,44.076,167.131,88.227C614.63,189.816,558.136,275.643,471.565,360.036z   M400,71.356c9.722,0,19.628,0.466,29.601,1.377c-0.121,0.707-0.26,1.414-0.391,2.121c-1.172,6.382-2.512,12.707-4.093,18.922  c-0.093,0.372-0.167,0.726-0.261,1.079c-1.656,6.419-3.572,12.707-5.637,18.921c-0.391,1.136-0.764,2.289-1.154,3.424  c-2.084,5.991-4.354,11.889-6.809,17.675c-0.475,1.098-0.969,2.195-1.452,3.293c-2.623,5.936-5.376,11.777-8.391,17.471  c-0.14,0.279-0.298,0.539-0.446,0.8c-2.959,5.563-6.141,10.978-9.471,16.279c-0.567,0.912-1.116,1.823-1.693,2.717  c-3.357,5.229-6.92,10.308-10.623,15.274c-0.763,1.005-1.525,1.991-2.289,2.996c-3.832,4.968-7.795,9.823-11.98,14.493  c-0.484,0.559-1.015,1.079-1.518,1.638c-4.046,4.446-8.251,8.744-12.604,12.894c-0.437,0.428-0.865,0.874-1.312,1.283  c-55.192-51.815-103.324-86.998-125.26-102.217C275.4,89.534,335.85,71.356,400,71.356z M195.193,142.41  c9.647,6.363,64.133,43.201,128.274,102.943c-0.717,0.521-1.387,1.098-2.094,1.6c-2.409,1.693-4.902,3.256-7.367,4.875  c-3.721,2.455-7.461,4.893-11.294,7.144c-2.66,1.545-5.357,2.996-8.065,4.447c-3.805,2.065-7.637,4.056-11.544,5.916  c-2.81,1.34-5.646,2.605-8.503,3.852c-3.953,1.712-7.944,3.33-11.991,4.838c-2.911,1.098-5.823,2.177-8.772,3.162  c-4.158,1.396-8.372,2.643-12.614,3.852c-2.939,0.818-5.86,1.675-8.837,2.4c-4.466,1.098-8.996,2.009-13.545,2.884  c-2.847,0.539-5.675,1.172-8.549,1.618c-5.052,0.819-10.196,1.377-15.34,1.917c-2.456,0.26-4.856,0.632-7.331,0.818  c-7.646,0.614-15.387,0.949-23.2,0.949c-6.866,0-13.75-0.298-20.643-0.764c-2.158-0.148-4.326-0.391-6.484-0.595  c-4.791-0.428-9.582-0.949-14.382-1.601c-2.456-0.335-4.902-0.707-7.349-1.116c-4.67-0.744-9.321-1.618-13.973-2.586  c-2.326-0.483-4.651-0.931-6.959-1.47c-1.079-0.242-2.13-0.577-3.2-0.837C112.698,228.497,148.997,179.137,195.193,142.41z   M81.506,318.714c1.591,0.391,3.191,0.67,4.772,1.042c2.847,0.65,5.684,1.246,8.53,1.842c4.94,1.023,9.87,1.935,14.819,2.753  c2.865,0.466,5.73,0.931,8.596,1.321c5.247,0.726,10.484,1.266,15.722,1.749c2.483,0.224,4.968,0.521,7.441,0.688  c7.685,0.539,15.368,0.855,23.034,0.855c0,0,0,0,0.019,0c8.037,0,15.981-0.335,23.87-0.911c0.688-0.037,1.377-0.074,2.065-0.131  c7.507-0.576,14.921-1.47,22.279-2.586c1.005-0.148,2.01-0.279,3.005-0.428c7.145-1.153,14.196-2.567,21.173-4.187  c1.135-0.26,2.27-0.521,3.405-0.8c6.874-1.693,13.665-3.609,20.363-5.768c1.106-0.354,2.223-0.726,3.32-1.098  c6.717-2.251,13.341-4.707,19.853-7.405c0.958-0.409,1.897-0.837,2.847-1.228c6.642-2.865,13.19-5.897,19.609-9.229  c0.633-0.335,1.237-0.688,1.86-1.023c6.708-3.534,13.303-7.293,19.74-11.367c0.056-0.037,0.103-0.056,0.149-0.093  c6.438-4.075,12.707-8.447,18.856-13.043c0.362-0.26,0.734-0.483,1.088-0.744c0.67,0.651,1.358,1.321,2.028,1.991  c8.056,8.019,15.926,16.094,23.592,24.224c1.423,1.507,2.809,3.033,4.223,4.54c7.646,8.224,15.126,16.466,22.363,24.782  c0.289,0.335,0.596,0.651,0.875,0.986c7.396,8.521,14.493,17.098,21.451,25.712c1.303,1.619,2.624,3.219,3.908,4.838  c6.66,8.372,13.098,16.763,19.33,25.191c0.438,0.613,0.875,1.209,1.313,1.823c-1.954,1.768-3.898,3.572-5.852,5.321  c-3.238,2.902-6.484,5.768-9.73,8.595c-3.908,3.405-7.814,6.717-11.74,10.01c-3.238,2.735-6.475,5.451-9.73,8.094  c-3.945,3.219-7.889,6.344-11.852,9.451c-3.219,2.549-6.447,5.098-9.676,7.554c-4.018,3.052-8.037,6.01-12.047,8.949  c-3.189,2.326-6.371,4.688-9.553,6.958c-4.131,2.922-8.271,5.73-12.41,8.54c-3.079,2.103-6.158,4.242-9.246,6.252  c-4.354,2.865-8.708,5.581-13.062,8.298c-2.884,1.805-5.768,3.684-8.67,5.433c-4.781,2.884-9.582,5.618-14.382,8.354  c-2.475,1.414-4.931,2.902-7.405,4.261c-6.567,3.628-13.145,7.089-19.721,10.4c-0.717,0.372-1.424,0.763-2.14,1.135  c-7.303,3.646-14.624,7.126-21.954,10.419c-2.158,0.968-4.336,1.823-6.494,2.772c-5.162,2.232-10.325,4.465-15.479,6.512  c-2.79,1.116-5.572,2.103-8.354,3.145c-4.549,1.729-9.098,3.46-13.656,5.042c-3.051,1.061-6.111,2.009-9.172,3.014  c-4.298,1.396-8.577,2.809-12.875,4.074c-3.2,0.949-6.382,1.786-9.582,2.66c-4.177,1.154-8.354,2.289-12.54,3.331  c-3.256,0.8-6.53,1.507-9.786,2.232c-4.111,0.931-8.224,1.823-12.335,2.624c-3.331,0.65-6.661,1.227-9.991,1.805  c-4.056,0.707-8.121,1.376-12.187,1.953c-3.367,0.483-6.717,0.912-10.084,1.32c-2.177,0.279-4.354,0.484-6.521,0.707  C84.269,505.417,71.357,453.025,71.357,400C71.357,372.464,74.771,345.188,81.506,318.714z M127.545,583.671  c7.237-1.005,14.456-2.177,21.675-3.517c0.707-0.13,1.396-0.298,2.094-0.428c6.967-1.321,13.926-2.791,20.865-4.409  c2.661-0.614,5.293-1.358,7.944-2.01c5.005-1.266,10.01-2.53,14.996-3.944c3.051-0.856,6.084-1.823,9.135-2.735  c4.587-1.395,9.173-2.809,13.769-4.334c3.182-1.061,6.381-2.195,9.563-3.313c4.466-1.581,8.912-3.199,13.359-4.893  c3.218-1.247,6.428-2.512,9.637-3.796c4.447-1.786,8.875-3.665,13.303-5.581c3.182-1.377,6.363-2.754,9.535-4.187  c4.531-2.065,9.052-4.224,13.573-6.4c3.032-1.47,6.084-2.921,9.116-4.446c4.838-2.438,9.675-5.005,14.493-7.609  c2.698-1.433,5.396-2.828,8.094-4.316c6.195-3.442,12.391-7.052,18.587-10.754c1.283-0.763,2.586-1.47,3.869-2.251  c7.461-4.503,14.903-9.229,22.326-14.104c2.289-1.507,4.577-3.106,6.856-4.651c5.163-3.479,10.316-6.977,15.47-10.623  c2.848-2.01,5.685-4.131,8.521-6.195c4.586-3.35,9.163-6.698,13.73-10.178c3.033-2.307,6.066-4.688,9.089-7.069  c4.382-3.424,8.754-6.885,13.107-10.438c3.089-2.512,6.177-5.079,9.266-7.646c4.316-3.609,8.633-7.293,12.931-11.033  c3.07-2.66,6.121-5.32,9.172-8.037c1.601-1.433,3.201-2.772,4.791-4.205c0.168,0.261,0.344,0.503,0.512,0.764  c5.619,8.372,10.949,16.763,16.112,25.191c1.144,1.879,2.279,3.758,3.405,5.637c5.078,8.447,9.981,16.912,14.596,25.396  c0.4,0.744,0.771,1.507,1.172,2.232c4.307,8.001,8.372,16.001,12.27,24.02c0.856,1.768,1.73,3.535,2.568,5.303  c3.981,8.391,7.749,16.801,11.274,25.191c0.242,0.577,0.466,1.172,0.707,1.749c-0.354,0.223-0.707,0.465-1.061,0.688  c-1.692,1.042-3.312,2.14-4.986,3.219c-2.958,1.897-5.916,3.813-8.819,5.822c-1.822,1.284-3.6,2.605-5.395,3.926  c-2.643,1.917-5.275,3.871-7.852,5.88c-1.824,1.433-3.629,2.921-5.424,4.391c-2.455,2.01-4.884,4.056-7.274,6.159  c-1.768,1.543-3.526,3.125-5.256,4.725c-2.335,2.141-4.633,4.336-6.903,6.568c-1.664,1.637-3.33,3.274-4.967,4.949  c-2.252,2.325-4.447,4.688-6.623,7.088c-1.535,1.675-3.08,3.35-4.578,5.061c-2.25,2.586-4.428,5.247-6.595,7.908  c-1.312,1.618-2.67,3.199-3.944,4.837c-2.512,3.219-4.922,6.512-7.303,9.842c-0.855,1.173-1.749,2.308-2.576,3.498  c-3.154,4.54-6.205,9.153-9.145,13.88c-0.791,1.265-1.518,2.604-2.289,3.889c-2.103,3.497-4.186,6.995-6.168,10.586  c-1.032,1.86-1.98,3.777-2.986,5.674c-1.618,3.089-3.236,6.178-4.762,9.34c-1.023,2.104-1.973,4.225-2.959,6.346  c-1.396,3.031-2.763,6.083-4.074,9.172c-0.949,2.251-1.842,4.502-2.754,6.771c-1.209,3.07-2.381,6.141-3.517,9.248  c-0.847,2.325-1.675,4.67-2.474,7.032c-1.061,3.144-2.066,6.308-3.052,9.489c-0.726,2.381-1.451,4.744-2.121,7.145  c-0.931,3.293-1.786,6.604-2.624,9.935c-0.586,2.345-1.199,4.707-1.748,7.089c-0.168,0.744-0.382,1.469-0.549,2.232  C283.271,724.644,186.188,670.446,127.545,583.671z M598.686,661.683c-0.13-1.19-0.354-2.4-0.493-3.609  c-0.912-7.963-1.99-15.945-3.303-23.963c-0.167-1.006-0.297-2.01-0.465-3.015c-1.507-8.837-3.33-17.675-5.33-26.531  c-0.521-2.288-1.089-4.595-1.638-6.902c-1.813-7.554-3.805-15.126-5.981-22.68c-0.446-1.563-0.838-3.126-1.303-4.688  c-2.642-8.856-5.544-17.713-8.67-26.568c-0.26-0.781-0.465-1.545-0.744-2.307c1.237-0.578,2.493-1.136,3.73-1.693  c3.209-1.451,6.428-2.865,9.684-4.168c1.898-0.781,3.824-1.507,5.75-2.232c3.236-1.228,6.502-2.382,9.786-3.461  c1.897-0.632,3.805-1.265,5.721-1.842c3.461-1.061,6.949-2.009,10.447-2.921c1.767-0.465,3.517-0.968,5.284-1.377  c4.167-1.004,8.372-1.842,12.604-2.642c1.126-0.205,2.224-0.465,3.358-0.67c5.274-0.911,10.596-1.637,15.945-2.232  c1.785-0.187,3.59-0.279,5.377-0.446c3.627-0.316,7.256-0.614,10.92-0.801c2.196-0.093,4.41-0.13,6.624-0.186  c3.032-0.056,6.084-0.093,9.136-0.056c5.145,0.037,10.326,0.279,15.507,0.613c1.665,0.112,3.321,0.149,4.995,0.298  c0.419,0.037,0.838,0.112,1.266,0.149C685.014,574.722,647.45,624.64,598.686,661.683z" fill="#4D4D4D"/></svg>