<?xml version="1.0" ?><svg viewBox="0 0 100 100" xmlns="http://www.w3.org/2000/svg"><title/><g data-name="Calque 2" id="Calque_2"><path d="M16.43,60.42a32.65,32.65,0,0,0-3.81,4.72A1.51,1.51,0,0,0,13,67.22a1.6,1.6,0,0,0,.83.25,1.49,1.49,0,0,0,1.25-.67,30.36,30.36,0,0,1,3.46-4.29,1.5,1.5,0,0,0-2.15-2.09Z"/><path d="M67.73,43.19c-1.6.31-3.4.63-5.67,1a1.5,1.5,0,0,0,.24,3l.24,0c2.3-.37,4.13-.7,5.77-1a1.5,1.5,0,0,0-.58-3Z"/><path d="M41,48c-2.05.5-3.91,1-5.69,1.59a1.5,1.5,0,0,0,.46,2.93,1.41,1.41,0,0,0,.45-.07c1.72-.55,3.51-1,5.49-1.53A1.5,1.5,0,0,0,41,48Z"/><path d="M18,69.24a1.49,1.49,0,0,0-2.12,0l-3.35,3.35-.32-.32-3-3A1.5,1.5,0,0,0,7,71.36l3.35,3.35L7,78.06a1.5,1.5,0,0,0,0,2.13,1.48,1.48,0,0,0,1.06.43,1.52,1.52,0,0,0,1.06-.43l3.35-3.36.22.23,3.13,3.13a1.48,1.48,0,0,0,1.06.43A1.5,1.5,0,0,0,18,80.19a1.52,1.52,0,0,0,0-2.13L14.6,74.71,18,71.36A1.51,1.51,0,0,0,18,69.24Z"/><path d="M98.08,23.81a10.58,10.58,0,0,0,1.09-4.72A11.92,11.92,0,0,0,87.29,7.21h0A11.91,11.91,0,0,0,75.41,19.08,10.71,10.71,0,0,0,76,22.63l-2.08-.39h-.26l-.18,0h-.1L49.63,26.63,25.89,22.24a2.17,2.17,0,0,0-.36,0l-.29,0-24,4.44A1.49,1.49,0,0,0,0,28.16V87A1.52,1.52,0,0,0,.54,88.2a1.52,1.52,0,0,0,1,.34,1.23,1.23,0,0,0,.27,0l23.8-4.4,23.79,4.4a1.83,1.83,0,0,0,.54,0l23.75-4.39,23.74,4.39a1.27,1.27,0,0,0,.28,0,1.56,1.56,0,0,0,1-.34A1.52,1.52,0,0,0,99.17,87V28.16a1.5,1.5,0,0,0-1.23-1.48l-1.29-.24L98,24.13A1.27,1.27,0,0,0,98.08,23.81ZM87.28,36.94l-7.9-14a2,2,0,0,0-.09-.22,7.61,7.61,0,0,1-.88-3.6,8.88,8.88,0,1,1,17.76,0,7.71,7.71,0,0,1-.88,3.59,1,1,0,0,0-.09.22ZM3,85.24V29.4l21-3.88v29c-.46.27-.91.55-1.35.83a1.5,1.5,0,0,0,.82,2.76A1.4,1.4,0,0,0,24,58V81.36Zm24.12-29c.67-.36,1.35-.72,2.07-1.06a1.48,1.48,0,0,0,.71-2,1.5,1.5,0,0,0-2-.72l-.79.39V25.52l21,3.88V46.58a1.52,1.52,0,0,0-.68,1.54,1.49,1.49,0,0,0,.68,1V85.24l-21-3.88Zm24-7.21c1.26-.22,2.52-.44,3.76-.64a1.5,1.5,0,0,0-.48-3c-1.08.17-2.18.37-3.28.55V29.4l21-3.88V81.36l-21,3.88Zm45-19.6V85.24l-21-3.88V44.28a1.76,1.76,0,0,0,.39.06,1.31,1.31,0,0,0,.44-.07A32.3,32.3,0,0,0,81.61,42a1.5,1.5,0,0,0,.63-2,1.51,1.51,0,0,0-2-.63,29.86,29.86,0,0,1-5.06,2V25.52l2.52.47L86,40.73a1.5,1.5,0,0,0,2.61,0l6.5-11.53Z"/><path d="M87.28,23.85a5.5,5.5,0,1,0-5.5-5.5A5.5,5.5,0,0,0,87.28,23.85Zm0-8a2.5,2.5,0,1,1-2.5,2.5A2.5,2.5,0,0,1,87.28,15.85Z"/></g></svg>