<?xml version="1.0" ?><svg id="icon" style="enable-background:new 0 0 512 512;" version="1.1" viewBox="0 0 512 512" xml:space="preserve" xmlns="http://www.w3.org/2000/svg" xmlns:xlink="http://www.w3.org/1999/xlink"><g><path d="M453.5343933,306.4867859c-1.2131958-1.309082-3.0112915-1.9142761-4.7546997-1.6244812l-205.9924011,34.2624817   V93.3595963c0-8.4230957-6.850296-15.2733994-15.2706909-15.2733994c-8.4180145,0-15.2681122,6.8503036-15.2681122,15.2733994   v5.3186035L84.2469025,321.7858887c-0.9416046,1.6399231-0.9363022,3.6578979,0.0103989,5.2929993   c0.9468002,1.6347046,2.6930008,2.6440125,4.5839996,2.6440125h123.4071884v14.4816895L61.4818001,369.2820129   c-1.6450996,0.2743835-3.0679016,1.3087769-3.8336983,2.7885742c-0.7684021,1.4797058-0.7942009,3.2390137-0.0673027,4.739502   l26.1410027,54.1081238c0.884697,1.8312988,2.7369995,2.995575,4.7703018,2.995575h266.492981   c0.7115173,0,1.4124146-0.144989,2.0670166-0.4188843c3.0888062-1.3091125,75.8799133-33.081604,97.7420959-122.1448059   C455.2185974,309.6221008,454.7450867,307.7904968,453.5343933,306.4867859z M222.8444977,93.3595963   c0-2.5763931,2.0955963-4.6771927,4.6721039-4.6771927c2.5764923,0,4.6744995,2.1007996,4.6744995,4.6771927v247.5281067   l-9.3466034,1.5549011V93.3595963z M97.9887009,319.126709l114.2597885-199.1548157V319.126709H97.9887009z    M353.8365784,423.3181152H91.8163986l-21.6165009-44.7436218l372.1925964-61.9108887   C421.0191956,389.4602051,361.9542847,419.4943848,353.8365784,423.3181152z"/><path d="M272.5110779,315.3135071c-0.4630737,2.0846863,0.3673096,4.2424011,2.1058044,5.4739075   c0.915802,0.6517944,1.9893188,0.9776917,3.0653992,0.9776917c0.9701233,0,1.9402161-0.263916,2.7992249-0.7966003   c0.3957825-0.2485046,39.9938965-24.6586914,70.5273743-24.6586914c31.0950012,0,56.9128113,8.3969727,57.1687012,8.4797974   c1.7825928,0.5846863,3.7279968,0.1966858,5.1376953-1.0296021c1.4101257-1.2261047,2.0722046-3.1045227,1.7384033-4.940918   c-27.5119019-152.4169922-156.486084-199.2921906-157.78479-199.7478027   c-1.9582977-0.6774979-4.1313019-0.1601944-5.5697021,1.319603c-1.4356995,1.4951019-1.8730011,3.6836014-1.1147919,5.6135025   C251.0213928,107.1221008,294.0782776,218.5773926,272.5110779,315.3135071z M402.9857788,292.3205872   c-10.5445862-2.6747742-29.8118896-6.6069946-51.9768982-6.6069946c-23.8072815,0-51.319397,12.6968079-65.8863831,20.4418945   c13.7261047-79.0770874-10.3143005-162.2421875-20.4989929-192.3903809   C294.7664795,128.1436005,378.7901917,177.7346039,402.9857788,292.3205872z"/><path d="M362.9840088,395.4411926c0.3309937,0,0.6647949-0.010498,1.0010681-0.0258789   c10.3840027-0.5537109,18.3853149-9.4529114,17.8369141-19.8364258c-0.2662964-5.0292969-2.4757996-9.6547852-6.2214966-13.0283813   c-3.7459106-3.3733215-8.601593-5.0700073-13.6124878-4.8114929c-5.0316162,0.2690735-9.6571045,2.4782715-13.0252075,6.2189941   c-3.3681946,3.7458801-5.0780945,8.5832825-4.811615,13.6125793   C344.681488,387.6178894,353.0296021,395.4411926,362.9840088,395.4411926z M356.8399963,371.0461121   c1.4770813-1.639801,3.5026855-2.6074219,5.7066956-2.7210999c0.0028076,0,0.0028076,0,0.005188,0   c0.150116-0.010498,0.3000183-0.0157166,0.4475098-0.0157166c2.0411987,0,3.9866028,0.7449036,5.5152893,2.1210938   c1.6404114,1.4749146,2.610321,3.5028992,2.7267151,5.7071228c0.2406921,4.5526733-3.2672119,8.4537964-7.8152161,8.691803   c-4.555481,0.3935852-8.4539795-3.2646179-8.694397-7.8173218   C354.615387,374.8075867,355.3656006,372.6863098,356.8399963,371.0461121z"/><path d="M322.801178,397.5675964c0.2715149,0,0.5457153-0.0101929,0.8227234-0.0206909   c4.1000977-0.2173157,7.8744812-2.0177917,10.6217957-5.0706177c2.7471924-3.0526733,4.1416931-6.994873,3.9243164-11.0975952   c-0.4501343-8.4645996-7.8124084-14.9267883-16.1682129-14.5440063c-0.0027161,0-0.0027161,0-0.0027161,0   c-8.4617004,0.4502258-14.9859009,7.7039185-14.5410767,16.1685181   C307.8924866,391.1933899,314.6936951,397.5675964,322.801178,397.5675964z M322.5621033,377.4206848   c2.6950989-0.1850891,4.8875732,1.883728,5.0275879,4.5166016c0.0671997,1.2778015-0.3675842,2.5041199-1.2213135,3.4509277   c-0.8536987,0.9518738-2.0255737,1.5106812-3.3008728,1.572998c-2.6257019,0.2220764-4.8893127-1.8833008-5.0290222-4.5169067   C317.9013062,379.810791,319.9289856,377.5613098,322.5621033,377.4206848z"/></g></svg>