<?xml version="1.0" ?><svg height="355.303" id="svg2060" width="387.991" xmlns="http://www.w3.org/2000/svg" xmlns:cc="http://creativecommons.org/ns#" xmlns:dc="http://purl.org/dc/elements/1.1/" xmlns:inkscape="http://www.inkscape.org/namespaces/inkscape" xmlns:rdf="http://www.w3.org/1999/02/22-rdf-syntax-ns#" xmlns:sodipodi="http://sodipodi.sourceforge.net/DTD/sodipodi-0.dtd" xmlns:svg="http://www.w3.org/2000/svg"><defs id="defs2062"><marker id="ArrowEnd" markerHeight="3" markerUnits="strokeWidth" markerWidth="4" orient="auto" refX="0" refY="5" viewBox="0 0 10 10"><path d="M 0 0 L 10 5 L 0 10 z" id="path2065"/></marker><marker id="ArrowStart" markerHeight="3" markerUnits="strokeWidth" markerWidth="4" orient="auto" refX="10" refY="5" viewBox="0 0 10 10"><path d="M 10 0 L 0 5 L 10 10 z" id="path2068"/></marker></defs><path d="M 194.026,291.861 L 193.968,291.861 L 89.235,291.861 L 89.235,324.93 C 89.235,365.187 30.997,365.666 30.997,324.93 L 30.997,291.861 L 0,291.861 L 0,188.301 C 0,160.505 22.358,145.816 34.984,144.213 L 66.858,62.816 C 72.858,47.316 85.858,34.068 110.358,34.068 L 155.897,34.068 L 155.897,12.816 C 155.897,4.316 160.507,0 168.007,0 L 193.968,0 L 194.026,0 L 193.964,0 L 194.023,0 L 220.484,0 C 227.984,0 232.594,4.316 232.594,12.816 L 232.594,34.068 L 277.61,34.068 C 302.11,34.068 315.11,47.316 321.11,62.816 L 352.984,144.213 C 365.61,145.816 387.991,160.505 387.991,188.301 L 387.991,291.861 L 356.994,291.861 L 356.994,324.93 C 356.994,365.666 298.756,365.187 298.756,324.93 L 298.756,291.861 L 194.023,291.861 L 193.964,291.861 L 194.026,291.861 z" id="path2072" style="fill:#000000;stroke:none"/><g id="g2074"><path d="M 193.964,142.296 L 193.905,142.296 L 67.984,142.296 L 91.982,79.316 C 94.982,70.316 99.484,63.816 109.984,63.719 L 193.905,63.719 L 193.964,63.719 L 194.023,63.719 L 277.986,63.719 C 288.486,63.816 292.986,70.316 295.986,79.316 L 319.984,142.296 L 194.023,142.296 L 193.964,142.296 z" id="path2076" style="fill:#ffffff;stroke:none"/><g id="g2078"><g id="g2080"><path d="M 61.043,228.552 C 46.187,228.552 34.142,216.261 34.142,201.102 C 34.142,185.943 46.187,173.653 61.043,173.653 C 75.899,173.653 87.943,185.943 87.943,201.102 C 87.943,216.261 75.899,228.552 61.043,228.552 z" id="path2082" style="fill:#ffffff;stroke:none"/><path d="" id="path2084" style="fill:#ffffff;stroke:none"/></g><g id="g2086"><path d="M 326.926,228.552 C 341.782,228.552 353.826,216.261 353.826,201.102 C 353.826,185.943 341.782,173.653 326.926,173.653 C 312.07,173.653 300.025,185.943 300.025,201.102 C 300.025,216.261 312.07,228.552 326.926,228.552 z" id="path2088" style="fill:#ffffff;stroke:none"/><path d="" id="path2090" style="fill:#ffffff;stroke:none"/></g></g></g></svg>