<?xml version="1.0" ?><svg viewBox="0 0 512 512" xmlns="http://www.w3.org/2000/svg"><g id="Elder_travel"><path d="M109.9184,437.2047a33.3336,33.3336,0,1,0,33.3335,33.3335A33.3337,33.3337,0,0,0,109.9184,437.2047Zm0,54.6671a21.3336,21.3336,0,1,1,21.3335-21.3336A21.3579,21.3579,0,0,1,109.9184,491.8718Z"/><path d="M294.4276,437.2047a33.3336,33.3336,0,1,0,33.3335,33.3335A33.3337,33.3337,0,0,0,294.4276,437.2047Zm0,54.6671a21.3336,21.3336,0,1,1,21.3335-21.3336A21.3578,21.3578,0,0,1,294.4276,491.8718Z"/><circle cx="294.4276" cy="470.5382" r="11.4187"/><circle cx="109.9184" cy="470.5382" r="11.4187"/><path d="M469.0626,42.15q-1.26-1.275-2.55-2.49c-.19-.17-.37-.34-.55-.51a5.4973,5.4973,0,0,0-7.51,8.03c.13.12.26.24.38.37.82.76,1.63,1.55,2.42,2.35a102.6463,102.6463,0,0,1,12.53,129.25V150.09c1.39-28.68-15.89-37.51-24.24-40.1a27.9637,27.9637,0,0,0,.89-7.02c0-.36-.02-.71-.04-1.07h4.41a5.5,5.5,0,0,0,0-11h-4.37V78.99a20.9,20.9,0,0,0-2.37-9.71,21.1918,21.1918,0,0,0-18.83-11.5h-13.3a21.2322,21.2322,0,0,0-21.2,21.21V90.9h-4.37a5.5,5.5,0,0,0,0,11h4c-.01.36-.04.71-.04,1.07a23.8638,23.8638,0,0,0,.14,2.69,27.5765,27.5765,0,0,0,.92,4.92,33.76,33.76,0,0,0-7.31,3.76c-.45.29-.89.61-1.34.95a21.2479,21.2479,0,0,0-17.38-11.89c-.55-.04-1.1-.06-1.64-.06a21.3954,21.3954,0,0,0-4.66.51,1.7716,1.7716,0,0,1-1.7-.61,21.17,21.17,0,0,0-31.83,0,1.7865,1.7865,0,0,1-1.7.61,21.187,21.187,0,0,0-25.78,19.22,21.1608,21.1608,0,0,0,15.41,21.83,28.0888,28.0888,0,0,0,3.25,9.5c-6.77,3.08-15.6,9.67-18.86,23.54a102.6076,102.6076,0,0,1-16.32-57.05c.72-56.12,46.72-101.41,102.76-101.41.31,0,.64,0,.95.01a102.0291,102.0291,0,0,1,53.11,15.33.2109.2109,0,0,0,.06.04,5.4982,5.4982,0,0,0,5.42-9.56c-.27-.17-.55-.34-.81-.52a112.9513,112.9513,0,0,0-57.67-16.29c-.36-.01-.71-.01-1.07-.01-62.02,0-112.95,50.15-113.75,112.27a113.3721,113.3721,0,0,0,60.62,102.1,2.5841,2.5841,0,0,1,1.41,2.27v28.96a10.4958,10.4958,0,0,0,6.38,9.67,10.6991,10.6991,0,0,0,4.13.84,10.479,10.479,0,0,0,7.27-2.93l24.19-23.2.02-.01,1.98-1.9a2.4912,2.4912,0,0,1,.6-.42.2186.2186,0,0,1,.05-.03,2.0719,2.0719,0,0,1,.64-.2,1.1826,1.1826,0,0,1,.25-.04,2.0172,2.0172,0,0,1,.35-.01c.81.04,1.61.07,2.42.09a4.76,4.76,0,0,0,.76.06c.19,0,.37-.01.55-.02.71.01,1.42.02,2.13.02a113.7606,113.7606,0,0,0,80.79-193.85Zm-63.7,59.75h34.04c.02.35.03.71.03,1.07a17.0551,17.0551,0,1,1-34.11,0C405.3224,102.61,405.3424,102.25,405.3625,101.9Zm-47.85,51.11a17.2608,17.2608,0,0,1-28.81-8.04,21.2165,21.2165,0,0,0,10.66-6.78,1.3825,1.3825,0,0,1,1.38-.32,21.2554,21.2554,0,0,0,9.39,0,1.3825,1.3825,0,0,1,1.38.32,21.2184,21.2184,0,0,0,7.71,5.74,20.6538,20.6538,0,0,0,2.95,1.04A17.251,17.251,0,0,1,357.5126,153.01Zm2.4-21.92c-.15-.18-.31-.36-.48-.53a12.1265,12.1265,0,0,0-8.85-3.74,12.9053,12.9053,0,0,0-2.88.32,10.1868,10.1868,0,0,1-4.53,0,12.3033,12.3033,0,0,0-12.21,3.95,10.2054,10.2054,0,0,1-7.78,3.61,10.1861,10.1861,0,0,1-10.16-10.9,10.1869,10.1869,0,0,1,9.34-9.43,10.3714,10.3714,0,0,1,3.05.21,12.76,12.76,0,0,0,12.37-4.08,10.1787,10.1787,0,0,1,15.31,0,12.8407,12.8407,0,0,0,4.93,3.49,12.6555,12.6555,0,0,0,7.44.59,10.3485,10.3485,0,0,1,3.05-.21,10.1791,10.1791,0,0,1,6.62,17.1,10.0843,10.0843,0,0,1-7.44,3.23A10.2056,10.2056,0,0,1,359.9125,131.09Zm102.88,18.59c0,.09-.01.18-.01.27v42.98a102.4365,102.4365,0,0,1-71.69,32.03V192.9c.66-13.61-2.89-22.75-7.7-28.87a32.9259,32.9259,0,0,0-13.05-9.93,28.1515,28.1515,0,0,0,3.08-9.2,21.1724,21.1724,0,0,0,9.75-5.92,21.6381,21.6381,0,0,0,2.88-3.86,21.027,21.027,0,0,0,2.27-5.76,5.1157,5.1157,0,0,0,.56-.66,21.8114,21.8114,0,0,1,11.58-8.25,28.0049,28.0049,0,0,0,44.19-.44C448.0724,120.6,464.0426,124.73,462.7926,149.68Z"/><path d="M361.6813,344.5342h-9.05A27.421,27.421,0,0,1,329.069,331.04l-13.5264-23.0328a71.5083,71.5083,0,0,0-37.3838-30.9951,17.4645,17.4645,0,0,0,3.0284-9.8442V202.6709a17.6138,17.6138,0,0,0-17.5938-17.5938H250.028V161.7314a14.9544,14.9544,0,0,0-14.9375-14.9375H195.2584a14.9544,14.9544,0,0,0-14.9375,14.9375v23.3457H166.7545a17.4879,17.4879,0,0,0-5.5927.9269V174.9453a23.71,23.71,0,0,0-23.6827-23.6826H116.1823A23.71,23.71,0,0,0,92.5,174.9453v.2315h-7.462A19.3449,19.3449,0,0,0,65.7145,194.5v51.2754a19.345,19.345,0,0,0,19.3232,19.3237h7.81a23.62,23.62,0,0,0,6.335,12.4351,124.7359,124.7359,0,0,0-42.6894,21.7851,6.0139,6.0139,0,0,0-1.262,1.01,125.4888,125.4888,0,0,0-39.88,56.4467,5.941,5.941,0,0,0-.3174.8993A124.4931,124.4931,0,0,0,8.442,397.7617V455.019A21.545,21.545,0,0,0,29.9625,476.54H50.4831a21.0441,21.0441,0,0,0,20.3544-16.18,42.3524,42.3524,0,0,1,83.0616,4.3916A13.7531,13.7531,0,0,0,167.528,476.54h73.2529a13.7549,13.7549,0,0,0,13.63-11.7886A42.3654,42.3654,0,0,1,332.5182,448.46a6.0019,6.0019,0,0,0,.4456.7489,42.3812,42.3812,0,0,1,4.5075,11.15,21.0445,21.0445,0,0,0,20.3555,16.18h42.5586a21.545,21.545,0,0,0,21.52-21.5206v-50.26A60.2932,60.2932,0,0,0,361.6813,344.5342ZM92.5,253.0991h-7.462a7.3319,7.3319,0,0,1-7.3232-7.3237V194.5a7.3315,7.3315,0,0,1,7.3232-7.3232H92.5ZM59.1872,457.4849a9.0715,9.0715,0,0,1-8.7041,7.0547H29.9625a9.5311,9.5311,0,0,1-9.52-9.5206V451.77H60.9435A54.7743,54.7743,0,0,0,59.1872,457.4849Zm27.1279-112.85a8.5923,8.5923,0,0,1-8.5923,8.5922H35.0705a3.5146,3.5146,0,0,1-3.1333-5.0871A113.6578,113.6578,0,0,1,58.911,312.8961a9.78,9.78,0,0,1,6.4558-2.4361,20.9483,20.9483,0,0,1,20.9483,20.9482ZM192.3209,161.7314a2.9407,2.9407,0,0,1,2.9375-2.9375h39.8321a2.9407,2.9407,0,0,1,2.9375,2.9375v23.3457H192.3209Zm-31.1591,40.9395a5.6,5.6,0,0,1,5.5927-5.5938h96.8389a5.6,5.6,0,0,1,5.5938,5.5938v19.4668H161.1618Zm0,58.4077v-12.31H269.1872v18.3989a5.6,5.6,0,0,1-5.5938,5.5932H166.7545a5.5993,5.5993,0,0,1-5.5927-5.5932Zm-23.6827,11.6821H116.1823A11.6959,11.6959,0,0,1,104.5,261.0786V174.9453a11.696,11.696,0,0,1,11.6826-11.6826h21.2968a11.6961,11.6961,0,0,1,11.6827,11.6826v86.1333A11.6959,11.6959,0,0,1,137.4791,272.7607Zm9.1441,76.01V314.917a14.8317,14.8317,0,0,1,14.8315-14.8316h46.659a7.0608,7.0608,0,0,1,7.0608,7.0608v49.3951a7.0608,7.0608,0,0,1-7.0608,7.0608h-46.659A14.8317,14.8317,0,0,1,146.6232,348.7705Zm95.8979,114.3569a1.7355,1.7355,0,0,1-1.74,1.4122H167.528a1.7338,1.7338,0,0,1-1.7393-1.4117,53.67,53.67,0,0,0-2.8476-11.3579h82.4272A53.682,53.682,0,0,0,242.5211,463.1274Zm62.023-104.5236a10.1932,10.1932,0,0,1-8.9224,4.9983h-61.487a7.0608,7.0608,0,0,1-7.0608-7.0608V307.1462a7.0608,7.0608,0,0,1,7.0608-7.0608h16.593a43.5494,43.5494,0,0,1,37.4419,21.443l12.8789,21.93a49.9417,49.9417,0,0,0,2.8428,4.3144A9.9273,9.9273,0,0,1,304.5441,358.6038ZM409.9059,455.019a9.5311,9.5311,0,0,1-9.52,9.5206H357.8268a9.0709,9.0709,0,0,1-8.7051-7.0547,54.8243,54.8243,0,0,0-1.7568-5.7149h62.541Zm-2.4-65.2555a47.8717,47.8717,0,0,1,2.2129,10.8039,3.5917,3.5917,0,0,1-3.5615,3.9267H369.66a8.6014,8.6014,0,0,1-8.573-9.1806,8.795,8.795,0,0,1,8.8757-8.0039h34.1409A3.5791,3.5791,0,0,1,407.5055,389.7635Z"/></g></svg>